<svg version="1.1" id="Layer_1" xmlns="http://www.w3.org/2000/svg" xmlns:xlink="http://www.w3.org/1999/xlink" x="0px" y="0px"
	 width="100%" viewBox="0 0 1024 1024" enable-background="new 0 0 1024 1024" xml:space="preserve">
<path fill="#35528C" opacity="1.000000" stroke="none" 
	d="
M1025.000000,399.000000 
	C1025.000000,607.611267 1025.000000,816.222473 1025.000000,1025.000000 
	C700.308472,1025.000000 375.616852,1025.000000 50.462357,1024.531372 
	C49.999313,1011.397644 50.190067,998.728699 49.930439,986.068909 
	C49.763741,977.940308 51.646580,969.660461 43.638290,962.856628 
	C38.466427,958.462708 36.003681,951.005432 31.693377,945.408813 
	C30.029535,943.248352 26.690685,941.407593 23.982538,941.206787 
	C16.358492,940.641479 8.665693,941.003540 1.000000,941.000000 
	C1.000000,940.555542 1.000000,940.111145 1.468651,939.333374 
	C8.762101,938.992432 15.594940,939.156921 22.405226,938.838684 
	C23.847395,938.771301 26.259117,937.071716 26.406523,935.896240 
	C26.839241,932.445435 20.491594,924.922302 16.929127,924.586731 
	C11.647852,924.089294 6.312392,924.167114 1.000000,924.000000 
	C1.000000,914.308411 1.000000,904.616882 1.435114,894.462524 
	C3.174581,893.988647 4.618927,894.328430 5.747996,893.877991 
	C7.171861,893.310059 9.545684,891.759216 9.395890,891.223633 
	C8.889997,889.415161 7.780716,887.350952 6.264583,886.378906 
	C4.963579,885.544739 2.788516,886.073853 0.999999,886.000000 
	C1.000000,725.975098 1.000000,565.950195 1.339348,405.511902 
	C3.323725,406.475586 4.966624,407.855225 6.614195,409.229279 
	C14.403440,415.725494 21.810102,422.761108 30.056587,428.613220 
	C54.025509,445.622742 80.585007,457.582947 108.330177,466.940613 
	C166.114838,486.429779 225.954025,495.662689 286.329437,501.982483 
	C304.359711,503.869781 322.467194,505.127563 340.566864,506.215637 
	C361.160767,507.453644 381.786926,508.149841 402.395386,509.157135 
	C405.604370,509.313965 406.980713,507.817505 408.244629,504.993683 
	C411.571472,497.560852 415.128021,490.207275 419.062622,483.081421 
	C420.668182,480.173676 420.316284,478.888885 417.712189,477.094055 
	C389.180450,457.428589 360.705841,437.679962 332.269623,417.876556 
	C329.806671,416.161346 327.917755,416.255585 325.552277,417.998962 
	C304.004883,433.879456 279.757660,438.698395 253.607620,435.056091 
	C207.430573,428.624329 171.287521,388.827087 169.111359,342.251953 
	C167.460266,306.914764 181.354355,278.828247 208.857071,257.146179 
	C227.517456,242.435074 248.941452,237.039658 272.462799,237.885513 
	C293.533905,238.643265 312.208344,245.333466 328.753387,258.248047 
	C331.439240,260.344574 334.082977,262.495056 336.931366,264.768402 
	C337.386902,263.808014 337.728210,263.395538 337.756653,262.962494 
	C337.810577,262.141602 337.698975,261.307861 337.632141,260.481384 
	C335.614746,235.535782 336.881531,210.913803 344.493103,186.847595 
	C355.789398,151.131027 377.714355,123.106026 406.713196,100.086205 
	C408.828674,98.406906 410.700806,96.048134 411.872955,93.613747 
	C419.718811,77.318489 431.809723,65.400650 448.331055,58.181992 
	C460.822235,52.724197 458.859955,54.573883 462.318878,64.418671 
	C464.757324,71.359108 464.706360,71.410088 471.689056,69.530983 
	C494.113495,63.496380 516.992249,63.268520 539.601257,66.679909 
	C577.487793,72.396469 609.882751,89.457977 636.687805,117.152122 
	C660.073608,141.313721 676.547058,169.139252 683.472290,202.222244 
	C686.821594,218.222168 688.874023,234.371841 687.170898,250.804764 
	C686.622192,256.099396 686.586243,261.447205 686.315735,266.770691 
	C687.688599,266.148590 688.274170,265.392487 688.735291,264.566833 
	C696.155823,251.281555 705.903076,239.917862 718.164001,231.002655 
	C748.670288,208.820770 782.142639,205.493530 816.082825,220.246628 
	C851.672729,235.716766 872.316895,264.116577 875.675049,303.150269 
	C878.579895,336.914795 866.208740,365.170776 840.387512,387.270447 
	C807.891418,415.082947 761.636719,418.672607 725.472046,396.162903 
	C722.378174,394.237213 720.683655,394.684204 718.291992,397.109772 
	C689.747559,426.058533 661.085327,454.891235 632.582947,483.881104 
	C631.632568,484.847717 631.415161,487.384979 631.936523,488.788971 
	C633.496582,492.990509 635.823608,496.905823 637.407959,501.100281 
	C638.653625,504.397888 640.223572,505.638824 644.030151,505.309113 
	C659.112244,504.002777 674.256104,503.402832 689.334534,502.062958 
	C718.331909,499.486298 747.435669,497.560486 776.246338,493.567993 
	C811.503906,488.682129 846.688477,482.850342 881.565857,475.760742 
	C915.079956,468.948242 947.701965,458.619507 978.093567,442.422455 
	C992.273499,434.865265 1005.564087,425.957947 1015.463684,412.930206 
	C1018.864136,408.455292 1021.833618,403.652802 1025.000000,399.000000 
M660.832581,171.701370 
	C650.261047,149.110031 634.992737,129.845734 615.859070,114.319046 
	C566.681030,74.411629 511.696991,66.881607 452.556946,88.214493 
	C436.473877,94.015968 421.211487,101.621368 411.214722,116.542236 
	C409.145416,119.630814 407.100800,121.500389 403.997528,118.050995 
	C335.508514,177.297485 335.309662,275.913513 377.675293,334.840820 
	C432.190857,410.667816 526.483337,422.243439 592.268311,383.902832 
	C676.248535,334.957764 692.151062,241.940720 660.832581,171.701370 
M430.161652,605.301575 
	C440.343719,620.658875 453.002380,633.589783 469.039124,642.712036 
	C511.605774,666.925537 570.323975,661.772156 607.216370,618.491150 
	C647.531433,571.194824 644.214539,496.274414 585.357300,454.552887 
	C563.733643,439.224792 539.048889,434.153748 513.211975,436.547089 
	C430.555603,444.203766 387.050293,535.936707 430.161652,605.301575 
M172.708832,671.742004 
	C180.699478,709.060791 202.960617,734.479004 239.201538,745.187805 
	C275.184143,755.820374 307.366058,746.384033 333.811157,719.371216 
	C369.428986,682.988770 367.170044,620.789062 329.368500,585.569214 
	C299.888977,558.103027 257.543854,554.775757 228.951752,567.715149 
	C190.532837,585.101624 164.927994,622.604370 172.708832,671.742004 
M580.070923,802.591858 
	C569.831787,816.759216 564.976440,832.674744 563.737732,850.042725 
	C558.767273,919.737000 630.658691,972.347534 697.407593,941.365295 
	C739.350708,921.897034 760.330811,875.173767 747.971924,830.542053 
	C737.591187,793.054138 700.152588,756.869324 647.117004,762.421509 
	C618.846802,765.381104 597.226807,779.602051 580.070923,802.591858 
M849.890198,263.617432 
	C834.459229,241.761383 814.274475,227.802002 787.087769,224.657654 
	C736.792664,218.840637 692.975708,255.696686 689.869873,306.141663 
	C686.635986,358.665039 731.970947,406.648285 790.931213,397.545349 
	C850.450073,388.356232 885.160767,319.083069 849.890198,263.617432 
M304.866089,416.401215 
	C336.986877,399.397430 354.562500,373.241669 355.572113,336.437286 
	C355.916992,323.865051 350.930420,312.882782 346.941956,301.405243 
	C342.830292,289.573090 335.461212,280.309418 326.639618,272.238007 
	C291.773315,240.336548 234.708298,242.593033 203.310623,278.654999 
	C180.571503,304.772156 174.347244,343.608429 189.655823,374.814514 
	C209.481201,415.227966 258.518860,436.602814 304.866089,416.401215 
M569.031616,432.428772 
	C577.209717,436.865143 585.530212,441.064972 593.493225,445.858612 
	C596.520325,447.680939 598.525085,447.670593 600.889160,445.361908 
	C605.058960,441.289795 609.226501,437.213165 613.480896,433.230164 
	C637.898071,410.370575 662.318176,387.513916 686.806335,364.730408 
	C689.478394,362.244415 690.279602,360.127655 688.457092,356.551666 
	C681.155518,342.224854 677.334290,327.015564 677.940918,310.822174 
	C678.042969,308.098816 677.955383,305.368286 677.955383,302.641083 
	C676.574402,303.531342 676.071350,304.509033 675.670349,305.526978 
	C664.043457,335.040070 645.362732,359.385101 620.867615,379.255127 
	C600.928345,395.429535 578.344971,406.563995 553.278992,412.381500 
	C549.342529,413.295074 547.602661,414.944550 547.876221,419.122467 
	C548.129639,422.992676 547.414673,426.646210 553.022644,427.605927 
	C558.226501,428.496582 563.226868,430.576508 569.031616,432.428772 
M458.544159,409.008911 
	C421.138885,397.308289 392.078125,373.965240 368.594482,343.258575 
	C365.850037,353.878387 363.655640,363.738800 360.650085,373.345459 
	C359.398468,377.345978 359.610565,379.432373 363.219849,381.953491 
	C391.603485,401.779907 419.882690,421.757812 448.035461,441.910614 
	C451.847046,444.639038 454.541077,445.121796 458.619995,442.391876 
	C469.643402,435.013977 481.796387,429.958038 494.788239,427.210785 
	C498.538574,426.417694 500.215576,425.064575 500.109772,421.006439 
	C499.992310,416.501495 496.849304,416.702759 493.987762,416.134369 
	C482.427979,413.838165 470.868073,411.542297 458.544159,409.008911 
M636.199463,462.697418 
	C661.468689,437.247650 686.737976,411.797882 711.564026,386.794495 
	C706.352844,381.662720 701.553406,376.936432 696.552795,372.012024 
	C667.065002,399.717468 637.019165,427.947266 607.012146,456.140625 
	C612.622375,462.566315 618.056152,468.789795 623.745605,475.306213 
	C627.762512,471.237854 631.730408,467.219116 636.199463,462.697418 
M625.545959,672.911316 
	C620.713257,660.176025 614.539551,648.190735 606.260803,637.247559 
	C600.496399,641.824219 595.194092,646.034058 589.774841,650.336670 
	C611.551697,682.830627 615.102600,719.795837 616.611816,757.291870 
	C622.964661,755.466064 628.643433,753.572144 634.455200,752.273438 
	C637.385803,751.618591 638.110291,750.407471 638.090271,747.587585 
	C637.910400,722.279236 634.731445,697.485901 625.545959,672.911316 
M357.730103,420.754089 
	C381.206451,437.002350 404.682831,453.250610 428.113831,469.467468 
	C433.317139,463.944641 438.160492,458.803833 443.192139,453.463196 
	C412.881104,432.016083 382.829163,410.752319 352.902771,389.577393 
	C347.919983,395.849365 343.399017,401.540009 338.668091,407.494934 
	C344.904510,411.822144 351.028992,416.071655 357.730103,420.754089 
M374.470947,640.096863 
	C373.261017,640.954041 371.027710,641.779541 371.000031,642.673340 
	C370.734528,651.251770 370.841156,659.841736 370.841156,668.771484 
	C400.017792,662.687134 428.628937,656.720703 457.044769,650.794983 
	C449.017822,643.318726 441.471954,636.119263 433.669739,629.209167 
	C432.505798,628.178345 430.015289,627.938660 428.344269,628.295837 
	C410.645782,632.078430 392.989044,636.056213 374.470947,640.096863 
M431.658569,76.157104 
	C424.378601,83.338425 418.757446,91.563683 414.998657,102.852394 
	C428.620819,89.689713 443.843964,82.489349 461.024506,78.542351 
	C459.000824,72.763100 457.127930,67.414375 454.692657,60.459591 
	C446.585815,65.938957 439.383179,70.807182 431.658569,76.157104 
M529.261047,416.072876 
	C523.552856,416.457031 517.844604,416.841187 511.935242,417.238861 
	C512.070801,419.689423 512.185791,421.768738 512.311951,424.050171 
	C520.341370,424.050171 527.887756,424.050171 535.478760,424.050171 
	C535.478760,421.197144 535.478760,418.533112 535.478760,416.015656 
	C533.423462,416.015656 531.776062,416.015656 529.261047,416.072876 
M685.481628,269.496246 
	C685.481628,269.496246 685.529297,269.473572 685.481628,269.496246 
z"/>
<path fill="#657BAA" opacity="1.000000" stroke="none" 
	d="
M1025.000000,398.531342 
	C1021.833618,403.652802 1018.864136,408.455292 1015.463684,412.930206 
	C1005.564087,425.957947 992.273499,434.865265 978.093567,442.422455 
	C947.701965,458.619507 915.079956,468.948242 881.565857,475.760742 
	C846.688477,482.850342 811.503906,488.682129 776.246338,493.567993 
	C747.435669,497.560486 718.331909,499.486298 689.334534,502.062958 
	C674.256104,503.402832 659.112244,504.002777 644.030151,505.309113 
	C640.223572,505.638824 638.653625,504.397888 637.407959,501.100281 
	C635.823608,496.905823 633.496582,492.990509 631.936523,488.788971 
	C631.415161,487.384979 631.632568,484.847717 632.582947,483.881104 
	C661.085327,454.891235 689.747559,426.058533 718.291992,397.109772 
	C720.683655,394.684204 722.378174,394.237213 725.472046,396.162903 
	C761.636719,418.672607 807.891418,415.082947 840.387512,387.270447 
	C866.208740,365.170776 878.579895,336.914795 875.675049,303.150269 
	C872.316895,264.116577 851.672729,235.716766 816.082825,220.246628 
	C782.142639,205.493530 748.670288,208.820770 718.164001,231.002655 
	C705.903076,239.917862 696.155823,251.281555 688.735291,264.566833 
	C688.274170,265.392487 687.688599,266.148590 686.315735,266.770691 
	C686.586243,261.447205 686.622192,256.099396 687.170898,250.804764 
	C688.874023,234.371841 686.821594,218.222168 683.472290,202.222244 
	C676.547058,169.139252 660.073608,141.313721 636.687805,117.152122 
	C609.882751,89.457977 577.487793,72.396469 539.601257,66.679909 
	C516.992249,63.268520 494.113495,63.496380 471.689056,69.530983 
	C464.706360,71.410088 464.757324,71.359108 462.318878,64.418671 
	C458.859955,54.573883 460.822235,52.724197 448.331055,58.181992 
	C431.809723,65.400650 419.718811,77.318489 411.872955,93.613747 
	C410.700806,96.048134 408.828674,98.406906 406.713196,100.086205 
	C377.714355,123.106026 355.789398,151.131027 344.493103,186.847595 
	C336.881531,210.913803 335.614746,235.535782 337.632141,260.481384 
	C337.698975,261.307861 337.810577,262.141602 337.756653,262.962494 
	C337.728210,263.395538 337.386902,263.808014 336.931366,264.768402 
	C334.082977,262.495056 331.439240,260.344574 328.753387,258.248047 
	C312.208344,245.333466 293.533905,238.643265 272.462799,237.885513 
	C248.941452,237.039658 227.517456,242.435074 208.857071,257.146179 
	C181.354355,278.828247 167.460266,306.914764 169.111359,342.251953 
	C171.287521,388.827087 207.430573,428.624329 253.607620,435.056091 
	C279.757660,438.698395 304.004883,433.879456 325.552277,417.998962 
	C327.917755,416.255585 329.806671,416.161346 332.269623,417.876556 
	C360.705841,437.679962 389.180450,457.428589 417.712189,477.094055 
	C420.316284,478.888885 420.668182,480.173676 419.062622,483.081421 
	C415.128021,490.207275 411.571472,497.560852 408.244629,504.993683 
	C406.980713,507.817505 405.604370,509.313965 402.395386,509.157135 
	C381.786926,508.149841 361.160767,507.453644 340.566864,506.215637 
	C322.467194,505.127563 304.359711,503.869781 286.329437,501.982483 
	C225.954025,495.662689 166.114838,486.429779 108.330177,466.940613 
	C80.585007,457.582947 54.025509,445.622742 30.056587,428.613220 
	C21.810102,422.761108 14.403440,415.725494 6.614195,409.229279 
	C4.966624,407.855225 3.323725,406.475586 1.339348,405.049255 
	C1.000000,270.365540 1.000000,135.731110 1.000000,1.048329 
	C342.219421,1.048329 683.438904,1.048329 1025.000000,1.048329 
	C1025.000000,133.354034 1025.000000,265.708344 1025.000000,398.531342 
z"/>
<path fill="#335588" opacity="1.000000" stroke="none" 
	d="
M1.000000,941.468628 
	C8.665693,941.003540 16.358492,940.641479 23.982538,941.206787 
	C26.690685,941.407593 30.029535,943.248352 31.693377,945.408813 
	C36.003681,951.005432 38.466427,958.462708 43.638290,962.856628 
	C51.646580,969.660461 49.763741,977.940308 49.930439,986.068909 
	C50.190067,998.728699 49.999313,1011.397644 49.999718,1024.531372 
	C33.720573,1025.000000 17.441149,1025.000000 1.000000,1025.000000 
	C1.000000,997.312622 1.000000,969.625000 1.000000,941.468628 
z"/>
<path fill="#335588" opacity="1.000000" stroke="none" 
	d="
M1.000000,924.466125 
	C6.312392,924.167114 11.647852,924.089294 16.929127,924.586731 
	C20.491594,924.922302 26.839241,932.445435 26.406523,935.896240 
	C26.259117,937.071716 23.847395,938.771301 22.405226,938.838684 
	C15.594940,939.156921 8.762101,938.992432 1.468651,939.000000 
	C1.000000,934.310730 1.000000,929.621521 1.000000,924.466125 
z"/>
<path fill="#335588" opacity="1.000000" stroke="none" 
	d="
M0.999999,886.444214 
	C2.788516,886.073853 4.963579,885.544739 6.264583,886.378906 
	C7.780716,887.350952 8.889997,889.415161 9.395890,891.223633 
	C9.545684,891.759216 7.171861,893.310059 5.747996,893.877991 
	C4.618927,894.328430 3.174581,893.988647 1.435114,893.999878 
	C1.000000,891.629456 1.000000,889.258850 0.999999,886.444214 
z"/>
<path fill="#FDFEFE" opacity="1.000000" stroke="none" 
	d="
M660.968384,172.052689 
	C692.151062,241.940720 676.248535,334.957764 592.268311,383.902832 
	C526.483337,422.243439 432.190857,410.667816 377.675293,334.840820 
	C335.309662,275.913513 335.508514,177.297485 403.997528,118.050995 
	C407.100800,121.500389 409.145416,119.630814 411.214722,116.542236 
	C421.211487,101.621368 436.473877,94.015968 452.556946,88.214493 
	C511.696991,66.881607 566.681030,74.411629 615.859070,114.319046 
	C634.992737,129.845734 650.261047,149.110031 660.968384,172.052689 
M618.126343,241.566055 
	C618.072815,241.071259 618.156799,240.506302 617.945435,240.092041 
	C614.309631,232.965408 595.578918,224.242889 587.868164,226.216888 
	C586.812012,226.487259 585.207703,227.919556 585.299255,228.627304 
	C585.452393,229.810471 586.563110,231.457916 587.636292,231.816879 
	C590.228088,232.683792 593.031067,232.919312 597.275269,233.684616 
	C592.254272,238.410843 588.109131,242.377533 583.894592,246.269073 
	C560.926147,267.477142 536.649902,286.432343 504.873535,292.692352 
	C472.747620,299.021240 441.894562,297.609436 413.692017,278.532990 
	C412.379669,277.645325 409.966766,278.384705 408.066406,278.366302 
	C408.861725,280.115051 409.179138,282.707489 410.531189,283.473297 
	C418.327942,287.889404 426.018768,292.949554 434.430115,295.690399 
	C442.258331,298.241272 446.695496,302.455566 450.989227,309.398071 
	C467.162659,335.548981 491.673218,348.001221 522.086060,348.436829 
	C553.380005,348.885071 574.222168,332.564087 579.997559,301.783997 
	C582.481140,288.547882 581.192017,274.618958 581.895691,261.019257 
	C582.016418,258.686371 582.984314,255.919632 584.522888,254.228577 
	C588.885986,249.432983 593.783325,245.127060 598.403564,240.560806 
	C603.865479,235.162674 605.607910,235.188461 611.053223,240.993713 
	C611.507874,241.478378 611.870789,242.048935 612.324524,242.534546 
	C614.274048,244.620773 616.188171,245.079788 618.126343,241.566055 
M546.737000,240.438492 
	C555.994324,238.787796 563.407837,233.928146 569.478760,226.982651 
	C589.674255,203.877975 591.389709,169.906815 573.729797,144.777054 
	C555.010864,118.140167 521.074463,119.121994 503.917908,146.794525 
	C503.012970,148.254150 502.079132,149.695862 501.077972,151.273178 
	C498.023224,146.884079 495.583679,142.891830 492.674744,139.277390 
	C471.925171,113.495575 438.937347,112.843636 417.113525,137.697693 
	C391.207275,167.201019 393.265381,219.581436 421.419128,247.277328 
	C440.669312,266.214478 468.125122,266.550018 486.901764,247.199753 
	C493.971436,239.914093 499.220886,230.862167 505.352417,222.544479 
	C515.044800,235.238693 528.104004,243.179932 546.737000,240.438492 
M539.508545,111.613945 
	C547.924805,112.489174 556.333984,113.447395 564.763306,114.170898 
	C566.487915,114.318909 568.288086,113.586853 570.053406,113.260483 
	C569.328552,111.541573 569.041260,109.376404 567.812378,108.171700 
	C552.970215,93.621635 535.154846,86.195572 514.285034,86.177338 
	C510.484558,86.174011 508.719849,87.551903 509.010986,91.503281 
	C509.463379,97.643890 509.866760,103.795158 510.016266,109.948586 
	C510.117828,114.127953 511.825775,114.792412 515.740723,114.164162 
	C523.275696,112.954979 530.919739,112.425385 539.508545,111.613945 
M536.536377,377.060760 
	C538.034180,377.819366 539.491455,379.140808 541.035889,379.251953 
	C563.425842,380.863281 580.622925,371.880951 593.065735,353.392548 
	C594.356018,351.475311 596.488770,349.213959 593.525208,347.616943 
	C592.405701,347.013702 589.438538,348.563141 588.084717,349.907715 
	C583.868591,354.095337 580.446838,359.157898 575.942688,362.964966 
	C566.536011,370.915802 555.308044,373.881989 543.033142,373.317627 
	C540.504028,373.201324 537.086365,372.146912 536.536377,377.060760 
z"/>
<path fill="#FEFEFF" opacity="1.000000" stroke="none" 
	d="
M429.979614,604.988586 
	C387.050293,535.936707 430.555603,444.203766 513.211975,436.547089 
	C539.048889,434.153748 563.733643,439.224792 585.357300,454.552887 
	C644.214539,496.274414 647.531433,571.194824 607.216370,618.491150 
	C570.323975,661.772156 511.605774,666.925537 469.039124,642.712036 
	C453.002380,633.589783 440.343719,620.658875 429.979614,604.988586 
M488.073029,487.483734 
	C502.399597,479.579590 517.674072,476.766754 533.889282,478.884369 
	C547.498901,480.661652 559.876709,485.803436 571.674622,492.567017 
	C576.537537,495.354858 581.181458,493.905060 581.867554,489.284180 
	C582.454895,485.327362 579.916626,483.185638 576.864197,481.451508 
	C558.565369,471.055664 539.218689,464.599487 517.850647,466.067444 
	C500.752228,467.242126 485.582947,473.609711 471.884827,483.696259 
	C468.773468,485.987244 467.697510,488.993805 470.173096,492.325226 
	C472.674072,495.690796 475.805420,495.196045 478.981537,493.152100 
	C481.778137,491.352417 484.612823,489.611877 488.073029,487.483734 
z"/>
<path fill="#FEFEFE" opacity="1.000000" stroke="none" 
	d="
M172.616638,671.320312 
	C164.927994,622.604370 190.532837,585.101624 228.951752,567.715149 
	C257.543854,554.775757 299.888977,558.103027 329.368500,585.569214 
	C367.170044,620.789062 369.428986,682.988770 333.811157,719.371216 
	C307.366058,746.384033 275.184143,755.820374 239.201538,745.187805 
	C202.960617,734.479004 180.699478,709.060791 172.616638,671.320312 
M217.372131,605.431702 
	C219.672241,611.698242 222.652969,612.685120 228.237946,608.931030 
	C242.324585,599.462341 257.621979,595.303894 274.628510,597.768860 
	C286.201111,599.446167 296.705536,603.778809 306.672729,609.648560 
	C310.193787,611.722168 313.308014,611.093201 315.277313,607.750610 
	C317.085724,604.681152 316.356110,601.567017 313.187927,599.502502 
	C310.964966,598.053955 308.663330,596.699768 306.295929,595.503113 
	C278.066650,581.233398 250.197617,580.076111 223.054535,598.183960 
	C220.740631,599.727661 219.242462,602.494141 217.372131,605.431702 
z"/>
<path fill="#FEFEFE" opacity="1.000000" stroke="none" 
	d="
M580.283813,802.303467 
	C597.226807,779.602051 618.846802,765.381104 647.117004,762.421509 
	C700.152588,756.869324 737.591187,793.054138 747.971924,830.542053 
	C760.330811,875.173767 739.350708,921.897034 697.407593,941.365295 
	C630.658691,972.347534 558.767273,919.737000 563.737732,850.042725 
	C564.976440,832.674744 569.831787,816.759216 580.283813,802.303467 
M639.828552,801.048035 
	C660.537231,795.426697 679.607910,799.973816 697.740051,810.368713 
	C702.387512,813.033020 705.756958,812.619629 707.661926,809.180786 
	C709.514832,805.835938 708.262451,802.259888 703.689270,799.855652 
	C697.820251,796.770081 691.874329,793.685547 685.661804,791.424072 
	C660.119080,782.126282 636.022644,785.112488 613.627808,800.729614 
	C610.268311,803.072327 608.276184,805.900452 610.802185,809.963196 
	C612.786072,813.153931 616.119995,813.001160 620.410278,810.613586 
	C626.479431,807.236023 632.819702,804.345581 639.828552,801.048035 
z"/>
<path fill="#FEFEFE" opacity="1.000000" stroke="none" 
	d="
M850.087158,263.919067 
	C885.160767,319.083069 850.450073,388.356232 790.931213,397.545349 
	C731.970947,406.648285 686.635986,358.665039 689.869873,306.141663 
	C692.975708,255.696686 736.792664,218.840637 787.087769,224.657654 
	C814.274475,227.802002 834.459229,241.761383 850.087158,263.919067 
M821.586121,258.946594 
	C816.546204,256.398315 811.660156,253.467712 806.440063,251.367035 
	C782.026611,241.542450 758.625732,243.306519 736.558533,258.141907 
	C731.634216,261.452454 730.456421,264.522308 732.646667,267.934784 
	C734.809998,271.305267 737.986694,271.069672 743.086670,268.228821 
	C748.580505,265.168579 754.207947,262.010162 760.172852,260.195984 
	C779.445068,254.334503 797.329407,258.988342 814.256592,268.729248 
	C817.488281,270.588928 820.562805,271.284882 823.220032,268.167664 
	C825.893555,265.031342 824.942261,262.020691 821.586121,258.946594 
z"/>
<path fill="#FEFEFE" opacity="1.000000" stroke="none" 
	d="
M304.533630,416.584900 
	C258.518860,436.602814 209.481201,415.227966 189.655823,374.814514 
	C174.347244,343.608429 180.571503,304.772156 203.310623,278.654999 
	C234.708298,242.593033 291.773315,240.336548 326.639618,272.238007 
	C335.461212,280.309418 342.830292,289.573090 346.941956,301.405243 
	C350.930420,312.882782 355.916992,323.865051 355.572113,336.437286 
	C354.562500,373.241669 336.986877,399.397430 304.533630,416.584900 
M233.966873,294.435669 
	C240.911682,291.316315 247.589935,287.177979 254.853683,285.277802 
	C273.157654,280.489624 290.081848,285.535889 305.996155,294.743225 
	C309.558014,296.803955 312.663361,296.910522 315.200104,293.448212 
	C317.355865,290.505951 316.156525,286.533508 312.170380,284.266876 
	C307.695801,281.722534 303.092072,279.316498 298.327576,277.385681 
	C273.373444,267.273163 249.560654,269.131714 227.192657,284.655731 
	C223.889297,286.948334 221.570114,289.780701 224.267471,293.831726 
	C226.739914,297.544952 230.045090,297.089996 233.966873,294.435669 
z"/>
<path fill="#657BAA" opacity="1.000000" stroke="none" 
	d="
M568.674194,432.280762 
	C563.226868,430.576508 558.226501,428.496582 553.022644,427.605927 
	C547.414673,426.646210 548.129639,422.992676 547.876221,419.122467 
	C547.602661,414.944550 549.342529,413.295074 553.278992,412.381500 
	C578.344971,406.563995 600.928345,395.429535 620.867615,379.255127 
	C645.362732,359.385101 664.043457,335.040070 675.670349,305.526978 
	C676.071350,304.509033 676.574402,303.531342 677.955383,302.641083 
	C677.955383,305.368286 678.042969,308.098816 677.940918,310.822174 
	C677.334290,327.015564 681.155518,342.224854 688.457092,356.551666 
	C690.279602,360.127655 689.478394,362.244415 686.806335,364.730408 
	C662.318176,387.513916 637.898071,410.370575 613.480896,433.230164 
	C609.226501,437.213165 605.058960,441.289795 600.889160,445.361908 
	C598.525085,447.670593 596.520325,447.680939 593.493225,445.858612 
	C585.530212,441.064972 577.209717,436.865143 568.674194,432.280762 
z"/>
<path fill="#657BAA" opacity="1.000000" stroke="none" 
	d="
M458.926208,409.127625 
	C470.868073,411.542297 482.427979,413.838165 493.987762,416.134369 
	C496.849304,416.702759 499.992310,416.501495 500.109772,421.006439 
	C500.215576,425.064575 498.538574,426.417694 494.788239,427.210785 
	C481.796387,429.958038 469.643402,435.013977 458.619995,442.391876 
	C454.541077,445.121796 451.847046,444.639038 448.035461,441.910614 
	C419.882690,421.757812 391.603485,401.779907 363.219849,381.953491 
	C359.610565,379.432373 359.398468,377.345978 360.650085,373.345459 
	C363.655640,363.738800 365.850037,353.878387 368.594482,343.258575 
	C392.078125,373.965240 421.138885,397.308289 458.926208,409.127625 
z"/>
<path fill="#FDFDFE" opacity="1.000000" stroke="none" 
	d="
M635.948853,462.948914 
	C631.730408,467.219116 627.762512,471.237854 623.745605,475.306213 
	C618.056152,468.789795 612.622375,462.566315 607.012146,456.140625 
	C637.019165,427.947266 667.065002,399.717468 696.552795,372.012024 
	C701.553406,376.936432 706.352844,381.662720 711.564026,386.794495 
	C686.737976,411.797882 661.468689,437.247650 635.948853,462.948914 
z"/>
<path fill="#FCFCFD" opacity="1.000000" stroke="none" 
	d="
M625.705811,673.266479 
	C634.731445,697.485901 637.910400,722.279236 638.090271,747.587585 
	C638.110291,750.407471 637.385803,751.618591 634.455200,752.273438 
	C628.643433,753.572144 622.964661,755.466064 616.611816,757.291870 
	C615.102600,719.795837 611.551697,682.830627 589.774841,650.336670 
	C595.194092,646.034058 600.496399,641.824219 606.260803,637.247559 
	C614.539551,648.190735 620.713257,660.176025 625.705811,673.266479 
z"/>
<path fill="#FCFCFD" opacity="1.000000" stroke="none" 
	d="
M357.441772,420.537628 
	C351.028992,416.071655 344.904510,411.822144 338.668091,407.494934 
	C343.399017,401.540009 347.919983,395.849365 352.902771,389.577393 
	C382.829163,410.752319 412.881104,432.016083 443.192139,453.463196 
	C438.160492,458.803833 433.317139,463.944641 428.113831,469.467468 
	C404.682831,453.250610 381.206451,437.002350 357.441772,420.537628 
z"/>
<path fill="#FCFCFD" opacity="1.000000" stroke="none" 
	d="
M374.895874,640.038574 
	C392.989044,636.056213 410.645782,632.078430 428.344269,628.295837 
	C430.015289,627.938660 432.505798,628.178345 433.669739,629.209167 
	C441.471954,636.119263 449.017822,643.318726 457.044769,650.794983 
	C428.628937,656.720703 400.017792,662.687134 370.841156,668.771484 
	C370.841156,659.841736 370.734528,651.251770 371.000031,642.673340 
	C371.027710,641.779541 373.261017,640.954041 374.895874,640.038574 
z"/>
<path fill="#F9FAFB" opacity="1.000000" stroke="none" 
	d="
M431.919556,75.916260 
	C439.383179,70.807182 446.585815,65.938957 454.692657,60.459591 
	C457.127930,67.414375 459.000824,72.763100 461.024506,78.542351 
	C443.843964,82.489349 428.620819,89.689713 414.998657,102.852394 
	C418.757446,91.563683 424.378601,83.338425 431.919556,75.916260 
z"/>
<path fill="#F9FAFB" opacity="1.000000" stroke="none" 
	d="
M529.694824,416.044250 
	C531.776062,416.015656 533.423462,416.015656 535.478760,416.015656 
	C535.478760,418.533112 535.478760,421.197144 535.478760,424.050171 
	C527.887756,424.050171 520.341370,424.050171 512.311951,424.050171 
	C512.185791,421.768738 512.070801,419.689423 511.935242,417.238861 
	C517.844604,416.841187 523.552856,416.457031 529.694824,416.044250 
z"/>
<path fill="#657BAA" opacity="1.000000" stroke="none" 
	d="
M685.505493,269.484924 
	C685.529297,269.473572 685.481628,269.496246 685.505493,269.484924 
z"/>
<path fill="#38558E" opacity="1.000000" stroke="none" 
	d="
M618.058228,241.958771 
	C616.188171,245.079788 614.274048,244.620773 612.324524,242.534546 
	C611.870789,242.048935 611.507874,241.478378 611.053223,240.993713 
	C605.607910,235.188461 603.865479,235.162674 598.403564,240.560806 
	C593.783325,245.127060 588.885986,249.432983 584.522888,254.228577 
	C582.984314,255.919632 582.016418,258.686371 581.895691,261.019257 
	C581.192017,274.618958 582.481140,288.547882 579.997559,301.783997 
	C574.222168,332.564087 553.380005,348.885071 522.086060,348.436829 
	C491.673218,348.001221 467.162659,335.548981 450.989227,309.398071 
	C446.695496,302.455566 442.258331,298.241272 434.430115,295.690399 
	C426.018768,292.949554 418.327942,287.889404 410.531189,283.473297 
	C409.179138,282.707489 408.861725,280.115051 408.066406,278.366302 
	C409.966766,278.384705 412.379669,277.645325 413.692017,278.532990 
	C441.894562,297.609436 472.747620,299.021240 504.873535,292.692352 
	C536.649902,286.432343 560.926147,267.477142 583.894592,246.269073 
	C588.109131,242.377533 592.254272,238.410843 597.275269,233.684616 
	C593.031067,232.919312 590.228088,232.683792 587.636292,231.816879 
	C586.563110,231.457916 585.452393,229.810471 585.299255,228.627304 
	C585.207703,227.919556 586.812012,226.487259 587.868164,226.216888 
	C595.578918,224.242889 614.309631,232.965408 617.945435,240.092041 
	C618.156799,240.506302 618.072815,241.071259 618.058228,241.958771 
M536.798523,331.080627 
	C535.390442,331.545654 533.982361,332.010651 532.574280,332.475647 
	C532.072021,329.599579 531.569824,326.723541 531.014526,323.544006 
	C521.084839,321.342346 508.166779,329.627197 506.125916,340.180756 
	C533.216125,347.440491 562.576172,338.373810 571.044800,310.249786 
	C555.541748,306.619751 538.851013,314.269806 536.798523,331.080627 
z"/>
<path fill="#3D5991" opacity="1.000000" stroke="none" 
	d="
M546.310852,240.545227 
	C528.104004,243.179932 515.044800,235.238693 505.352417,222.544479 
	C499.220886,230.862167 493.971436,239.914093 486.901764,247.199753 
	C468.125122,266.550018 440.669312,266.214478 421.419128,247.277328 
	C393.265381,219.581436 391.207275,167.201019 417.113525,137.697693 
	C438.937347,112.843636 471.925171,113.495575 492.674744,139.277390 
	C495.583679,142.891830 498.023224,146.884079 501.077972,151.273178 
	C502.079132,149.695862 503.012970,148.254150 503.917908,146.794525 
	C521.074463,119.121994 555.010864,118.140167 573.729797,144.777054 
	C591.389709,169.906815 589.674255,203.877975 569.478760,226.982651 
	C563.407837,233.928146 555.994324,238.787796 546.310852,240.545227 
M414.104767,152.741150 
	C409.048126,162.103912 406.193207,172.135254 405.406189,182.707993 
	C403.580139,207.238571 409.639221,228.918442 428.786652,245.666443 
	C441.790131,257.040405 460.052307,258.574677 474.669983,249.345825 
	C484.036041,243.432587 491.317871,235.250336 495.758789,225.234924 
	C508.020966,197.580368 506.893829,170.788849 489.628448,145.142517 
	C475.925873,124.788437 448.897186,119.149712 429.811615,134.001816 
	C423.704102,138.754608 419.536194,145.999847 414.104767,152.741150 
M556.878845,136.457047 
	C551.520691,134.893417 546.243347,132.415207 540.789612,131.933472 
	C522.686096,130.334396 511.141449,143.766083 505.003662,157.207733 
	C504.526978,158.251709 504.631683,159.831329 505.029785,160.963913 
	C510.772125,177.301743 510.846588,193.911530 507.692841,210.719498 
	C507.464966,211.934113 507.349426,213.466888 507.883118,214.483414 
	C518.466980,234.641159 542.283386,241.481735 559.731995,228.170258 
	C585.988281,208.139328 587.401306,158.176743 556.878845,136.457047 
z"/>
<path fill="#3D5991" opacity="1.000000" stroke="none" 
	d="
M539.013550,111.613953 
	C530.919739,112.425385 523.275696,112.954979 515.740723,114.164162 
	C511.825775,114.792412 510.117828,114.127953 510.016266,109.948586 
	C509.866760,103.795158 509.463379,97.643890 509.010986,91.503281 
	C508.719849,87.551903 510.484558,86.174011 514.285034,86.177338 
	C535.154846,86.195572 552.970215,93.621635 567.812378,108.171700 
	C569.041260,109.376404 569.328552,111.541573 570.053406,113.260483 
	C568.288086,113.586853 566.487915,114.318909 564.763306,114.170898 
	C556.333984,113.447395 547.924805,112.489174 539.013550,111.613953 
M517.412048,107.340248 
	C529.679199,106.416603 541.946350,105.492958 554.173462,104.572327 
	C542.761414,96.624512 529.919006,92.224739 514.984009,92.575989 
	C515.541748,97.966316 516.017151,102.560951 517.412048,107.340248 
z"/>
<path fill="#3D5991" opacity="1.000000" stroke="none" 
	d="
M536.401306,376.694885 
	C537.086365,372.146912 540.504028,373.201324 543.033142,373.317627 
	C555.308044,373.881989 566.536011,370.915802 575.942688,362.964966 
	C580.446838,359.157898 583.868591,354.095337 588.084717,349.907715 
	C589.438538,348.563141 592.405701,347.013702 593.525208,347.616943 
	C596.488770,349.213959 594.356018,351.475311 593.065735,353.392548 
	C580.622925,371.880951 563.425842,380.863281 541.035889,379.251953 
	C539.491455,379.140808 538.034180,377.819366 536.401306,376.694885 
z"/>
<path fill="#3A568F" opacity="1.000000" stroke="none" 
	d="
M487.751831,487.664459 
	C484.612823,489.611877 481.778137,491.352417 478.981537,493.152100 
	C475.805420,495.196045 472.674072,495.690796 470.173096,492.325226 
	C467.697510,488.993805 468.773468,485.987244 471.884827,483.696259 
	C485.582947,473.609711 500.752228,467.242126 517.850647,466.067444 
	C539.218689,464.599487 558.565369,471.055664 576.864197,481.451508 
	C579.916626,483.185638 582.454895,485.327362 581.867554,489.284180 
	C581.181458,493.905060 576.537537,495.354858 571.674622,492.567017 
	C559.876709,485.803436 547.498901,480.661652 533.889282,478.884369 
	C517.674072,476.766754 502.399597,479.579590 487.751831,487.664459 
z"/>
<path fill="#38558E" opacity="1.000000" stroke="none" 
	d="
M217.368744,605.062134 
	C219.242462,602.494141 220.740631,599.727661 223.054535,598.183960 
	C250.197617,580.076111 278.066650,581.233398 306.295929,595.503113 
	C308.663330,596.699768 310.964966,598.053955 313.187927,599.502502 
	C316.356110,601.567017 317.085724,604.681152 315.277313,607.750610 
	C313.308014,611.093201 310.193787,611.722168 306.672729,609.648560 
	C296.705536,603.778809 286.201111,599.446167 274.628510,597.768860 
	C257.621979,595.303894 242.324585,599.462341 228.237946,608.931030 
	C222.652969,612.685120 219.672241,611.698242 217.368744,605.062134 
z"/>
<path fill="#3A568F" opacity="1.000000" stroke="none" 
	d="
M639.436279,801.147461 
	C632.819702,804.345581 626.479431,807.236023 620.410278,810.613586 
	C616.119995,813.001160 612.786072,813.153931 610.802185,809.963196 
	C608.276184,805.900452 610.268311,803.072327 613.627808,800.729614 
	C636.022644,785.112488 660.119080,782.126282 685.661804,791.424072 
	C691.874329,793.685547 697.820251,796.770081 703.689270,799.855652 
	C708.262451,802.259888 709.514832,805.835938 707.661926,809.180786 
	C705.756958,812.619629 702.387512,813.033020 697.740051,810.368713 
	C679.607910,799.973816 660.537231,795.426697 639.436279,801.147461 
z"/>
<path fill="#3B578F" opacity="1.000000" stroke="none" 
	d="
M821.884399,259.157959 
	C824.942261,262.020691 825.893555,265.031342 823.220032,268.167664 
	C820.562805,271.284882 817.488281,270.588928 814.256592,268.729248 
	C797.329407,258.988342 779.445068,254.334503 760.172852,260.195984 
	C754.207947,262.010162 748.580505,265.168579 743.086670,268.228821 
	C737.986694,271.069672 734.809998,271.305267 732.646667,267.934784 
	C730.456421,264.522308 731.634216,261.452454 736.558533,258.141907 
	C758.625732,243.306519 782.026611,241.542450 806.440063,251.367035 
	C811.660156,253.467712 816.546204,256.398315 821.884399,259.157959 
z"/>
<path fill="#3B578F" opacity="1.000000" stroke="none" 
	d="
M233.673264,294.653931 
	C230.045090,297.089996 226.739914,297.544952 224.267471,293.831726 
	C221.570114,289.780701 223.889297,286.948334 227.192657,284.655731 
	C249.560654,269.131714 273.373444,267.273163 298.327576,277.385681 
	C303.092072,279.316498 307.695801,281.722534 312.170380,284.266876 
	C316.156525,286.533508 317.355865,290.505951 315.200104,293.448212 
	C312.663361,296.910522 309.558014,296.803955 305.996155,294.743225 
	C290.081848,285.535889 273.157654,280.489624 254.853683,285.277802 
	C247.589935,287.177979 240.911682,291.316315 233.673264,294.653931 
z"/>
<path fill="#F9FAFB" opacity="1.000000" stroke="none" 
	d="
M536.898193,330.699860 
	C538.851013,314.269806 555.541748,306.619751 571.044800,310.249786 
	C562.576172,338.373810 533.216125,347.440491 506.125916,340.180756 
	C508.166779,329.627197 521.084839,321.342346 531.014526,323.544006 
	C531.569824,326.723541 532.072021,329.599579 532.574280,332.475647 
	C533.982361,332.010651 535.390442,331.545654 536.898193,330.699860 
z"/>
<path fill="#FEFEFE" opacity="1.000000" stroke="none" 
	d="
M414.292786,152.422928 
	C419.536194,145.999847 423.704102,138.754608 429.811615,134.001816 
	C448.897186,119.149712 475.925873,124.788437 489.628448,145.142517 
	C506.893829,170.788849 508.020966,197.580368 495.758789,225.234924 
	C491.317871,235.250336 484.036041,243.432587 474.669983,249.345825 
	C460.052307,258.574677 441.790131,257.040405 428.786652,245.666443 
	C409.639221,228.918442 403.580139,207.238571 405.406189,182.707993 
	C406.193207,172.135254 409.048126,162.103912 414.292786,152.422928 
M474.304169,187.100708 
	C467.254242,182.364929 460.515991,183.630753 455.865967,190.546600 
	C451.893921,196.454102 451.900604,202.854843 454.295807,209.134460 
	C456.219940,214.179184 459.975922,217.714752 465.759186,218.201279 
	C471.726166,218.703247 475.418640,215.187378 478.151245,210.561188 
	C482.329193,203.488144 481.025452,195.186264 474.304169,187.100708 
z"/>
<path fill="#FDFDFE" opacity="1.000000" stroke="none" 
	d="
M557.183716,136.660065 
	C587.401306,158.176743 585.988281,208.139328 559.731995,228.170258 
	C542.283386,241.481735 518.466980,234.641159 507.883118,214.483414 
	C507.349426,213.466888 507.464966,211.934113 507.692841,210.719498 
	C510.846588,193.911530 510.772125,177.301743 505.029785,160.963913 
	C504.631683,159.831329 504.526978,158.251709 505.003662,157.207733 
	C511.141449,143.766083 522.686096,130.334396 540.789612,131.933472 
	C546.243347,132.415207 551.520691,134.893417 557.183716,136.660065 
M538.109741,204.817108 
	C539.629944,202.291595 541.752930,199.940567 542.544800,197.204300 
	C544.198975,191.488174 542.591309,186.192917 538.024109,182.350159 
	C534.521301,179.402985 530.256042,179.543228 526.308838,181.660583 
	C520.605835,184.719803 518.729736,194.698181 522.430298,201.317474 
	C525.817322,207.375961 531.288635,208.841141 538.109741,204.817108 
z"/>
<path fill="#F9FAFB" opacity="1.000000" stroke="none" 
	d="
M516.952271,107.247917 
	C516.017151,102.560951 515.541748,97.966316 514.984009,92.575989 
	C529.919006,92.224739 542.761414,96.624512 554.173462,104.572327 
	C541.946350,105.492958 529.679199,106.416603 516.952271,107.247917 
z"/>
<path fill="#38558E" opacity="1.000000" stroke="none" 
	d="
M474.582092,187.341949 
	C481.025452,195.186264 482.329193,203.488144 478.151245,210.561188 
	C475.418640,215.187378 471.726166,218.703247 465.759186,218.201279 
	C459.975922,217.714752 456.219940,214.179184 454.295807,209.134460 
	C451.900604,202.854843 451.893921,196.454102 455.865967,190.546600 
	C460.515991,183.630753 467.254242,182.364929 474.582092,187.341949 
M466.908325,193.599487 
	C463.705597,191.233597 460.521606,190.927856 458.862305,195.018753 
	C458.263367,196.495392 459.242767,199.242950 460.430267,200.595428 
	C461.244354,201.522614 463.973206,201.691177 465.297607,201.055725 
	C468.052917,199.733749 468.644409,197.149109 466.908325,193.599487 
z"/>
<path fill="#3A568F" opacity="1.000000" stroke="none" 
	d="
M537.835693,205.093292 
	C531.288635,208.841141 525.817322,207.375961 522.430298,201.317474 
	C518.729736,194.698181 520.605835,184.719803 526.308838,181.660583 
	C530.256042,179.543228 534.521301,179.402985 538.024109,182.350159 
	C542.591309,186.192917 544.198975,191.488174 542.544800,197.204300 
	C541.752930,199.940567 539.629944,202.291595 537.835693,205.093292 
M530.996277,188.696930 
	C528.258545,186.539444 525.687317,186.676834 524.227905,189.939224 
	C523.712952,191.090439 524.231750,193.608139 525.160095,194.275269 
	C526.358032,195.136169 529.266357,195.515198 529.955139,194.756149 
	C531.080688,193.515686 531.008545,191.188461 530.996277,188.696930 
z"/>
<path fill="#F9FAFB" opacity="1.000000" stroke="none" 
	d="
M467.100677,193.945236 
	C468.644409,197.149109 468.052917,199.733749 465.297607,201.055725 
	C463.973206,201.691177 461.244354,201.522614 460.430267,200.595428 
	C459.242767,199.242950 458.263367,196.495392 458.862305,195.018753 
	C460.521606,190.927856 463.705597,191.233597 467.100677,193.945236 
z"/>
<path fill="#F9FAFB" opacity="1.000000" stroke="none" 
	d="
M531.218994,189.008316 
	C531.008545,191.188461 531.080688,193.515686 529.955139,194.756149 
	C529.266357,195.515198 526.358032,195.136169 525.160095,194.275269 
	C524.231750,193.608139 523.712952,191.090439 524.227905,189.939224 
	C525.687317,186.676834 528.258545,186.539444 531.218994,189.008316 
z"/>
</svg>